<svg width="39" height="40" viewBox="0 0 39 40" fill="none" xmlns="http://www.w3.org/2000/svg">
<path d="M31.6875 10.0818V2.63544C31.6875 1.26484 30.596 0.15332 29.25 0.15332H2.4375C1.09154 0.15332 0 1.26484 0 2.63544V10.0818C0 11.4524 1.09154 12.5639 2.4375 12.5639H29.25C30.596 12.5639 31.6875 11.4524 31.6875 10.0818ZM34.125 5.11755V15.046C34.125 16.4166 33.0335 17.5281 31.6875 17.5281H19.5C16.8073 17.5281 14.625 19.7504 14.625 22.4924V24.9745C13.279 24.9745 12.1875 26.086 12.1875 27.4566V37.385C12.1875 38.7556 13.279 39.8672 14.625 39.8672H19.5C20.846 39.8672 21.9375 38.7556 21.9375 37.385V27.4566C21.9375 26.086 20.846 24.9745 19.5 24.9745V22.4924H31.6875C35.7261 22.4924 39 19.1586 39 15.046V10.0818C39 7.33982 36.8177 5.11755 34.125 5.11755Z" fill="black"/>
</svg>
