<svg id="Layer_1" data-name="Layer 1" xmlns="http://www.w3.org/2000/svg" viewBox="0 0 289.38 111.37">
<defs><style>.cls-1{fill:#fff;}.cls-2{fill:#fbf9fb;}</style></defs><path class="cls-1" 
d="M-494.16,179.1c3.31-.25,6.62-.46,9.93-.61h.08l.14,0q5.83,1.86,11.64,3.83l5.8,2,5.77,2
,7.07,2.49-7.55.16c-2.6.06-5.19.08-7.79.09l-7.79,0c-5.2,0-10.39,0-15.59-.15l.94-2.32q5.8
3,5.84,11.51,11.8c1.9,2,3.78,4,5.65,6s3.71,4.06,5.54,6.12q-3.18-2.64-6.28-5.36t-6.17-5.47
q-6.14-5.5-12.13-11.15l-2.38-2.24,3.32-.08c5.2-.12,10.39-.11,15.59-.15l7.79,0c2.6,0,5.19,0
,7.79.09l-.48,2.66-5.7-2.24-5.68-2.3q-5.67-2.31-11.3-4.74l.21,0C-487.54,179.56-490.85,179.35
-494.16,179.1Z" transform="translate(510.82 -178.48)"/><path class="cls-1" d="M-475.32,197.94c2.7
6,2.49,5.49,5,8.22,7.53l8.12,7.63.49.46-.39.61c-3.75,5.76-7.57,11.48-11.37,17.2s-7.67,11.41-11.58,1
7.06-7.78,11.33-11.73,17-7.9,11.25-11.87,16.85l-5.39,7.61,3.11-8.75,3.69-10.38,3.76-10.37,3.84-10.33
c1.31-3.44,2.62-6.87,4-10.3q-1.49,5.33-3.05,10.61l-3.18,10.55-3.27,10.53-3.32,10.51-2.28-1.14c3.85-5.
7,7.68-11.4,11.59-17.06s7.79-11.32,11.73-17,7.92-11.23,11.89-16.84,8-11.17,12.09-16.71l.1,1.06-7.64-8
.12C-470.31,203.43-472.83,200.7-475.32,197.94Z" transform="translate(510.82 -178.48)"/><path class="cls-2" d="M-432.75,219.58
a15.4,15.4,0,0,0-1.31-3.39c-.65-1.11-1.06-1.39-3.31-1.39h-4.09v19.9c0,3.19.33,3.64,4.21,3.88v1.14h-11.89v-1.14c3.8-
.24,4.13-.65,4.13-3.88V214.8h-3.72c-2.25,0-2.9.24-3.6,1.47a19.54,19.54,0,0,0-1.35,3.31h-1.22c.24-2.49.49-5.07.61-7.36
h.94c.61,1,1.06.94,2.21.94H-435a2,2,0,0,0,2.08-.94h1c0,1.92.17,4.87.37,7.24Z" transform="translate(510.82 -178.48)"/>
<path class="cls-2" d="M-414.37,212.59a13.13,13.13,0,0,1,13.24,13.49c0,8.78-6,14.26-13.48,14.26a13.3,13.3,0,0,1-13.57-
13.65C-428.18,219.38-423,212.59-414.37,212.59Zm-.82,1.51c-4.57,0-8.74,3.84-8.74,11.49s4.17,13.19,10,13.19c4.94,0,8.66-
3.67,8.66-11.56C-405.3,218.64-409.83,214.1-415.19,214.1Z" transform="translate(510.82 -178.48)"/><path class="cls-2"
 d="M-372.94,240.05c-.53,0-1,0-1.51-.08a7.26,7.26,0,0,1-6.38-3.51c-1.51-2.09-3-4.66-4.29-6.75-.81-1.3-1.34-1.55-3.43
 -1.55H-390v6.42c0,3.47.45,3.67,3.72,4v1.14h-10.91v-1.14c3.39-.37,3.68-.53,3.68-4V218.27c0-3.47-.45-3.59-3.68-4v-1.15
 h10.42c3,0,5,.37,6.54,1.39a6.13,6.13,0,0,1,2.78,5.4c0,3.51-2.25,5.72-5.28,7,.74,1.26,2.5,4,3.72,5.84a38.93,38.93,0,0
 ,0,3.23,4.21,6,6,0,0,0,3,1.88ZM-388,226.77c2.13,0,3.48-.33,4.5-1.18a5.76,5.76,0,0,0,2.25-5c0-4.37-2.91-6-6.05-6a3.8,
 3.8,0,0,0-2.17.41c-.37.29-.49.7-.49,1.76v10Z" transform="translate(510.82 -178.48)"/><path class="cls-2" d="M-371.35,2
 13.16h10.91v1.15c-3.19.28-3.76.57-3.76,4.21v7a5.71,5.71,0,0,0,2.94-1.87c2.29-2.17,5-4.95,6.91-7.07,1.23-1.39,1.1-1.92-.65
 -2.17l-1.15-.12v-1.15h9.93v1.15c-3.06.37-4.13.57-6.86,3.39-1.23,1.18-4.42,4.29-7,6.86,3.1,3.68,7.64,8.91,9.76,11.16s2.62
 ,2.57,5.15,2.86v1.14h-6.53c-3.15-3.55-6.46-7.51-10.18-11.85a2.47,2.47,0,0,0-2.29-1.18v7.76c0,3.56.37,3.84,3.76,4.13v1.14
 h-10.91v-1.14c3.35-.29,3.68-.57,3.68-4.13V218.52c0-3.68-.29-4-3.68-4.21Z" transform="translate(510.82 -178.48)"/>
 <path class="cls-2" d="M-314.8,214.31c-3.39.32-3.72.53-3.72,4v16.39c0,3.43.37,3.55,3.72,3.92v1.14h-10.95v-1.14c3.3
 9-.41,3.72-.49,3.72-3.92v-8.18h-14v8.18c0,3.39.33,3.51,3.68,3.92v1.14h-10.91v-1.14c3.31-.37,3.68-.49,3.68-3.92V218.
 27c0-3.43-.37-3.64-3.68-4v-1.15h10.91v1.15c-3.27.28-3.68.57-3.68,4v6.5h14v-6.5c0-3.39-.45-3.68-3.72-4v-1.15h10.95Z"
  transform="translate(510.82 -178.48)"/><path class="cls-2" d="M-297.11,212.59a13.13,13.13,0,0,1,13.24,13.49c0,8.78
  -6,14.26-13.49,14.26a13.3,13.3,0,0,1-13.56-13.65C-310.92,219.38-305.73,212.59-297.11,212.59Zm-.82,1.51c-4.57,0-8.7
  4,3.84-8.74,11.49s4.17,13.19,10,13.19c4.94,0,8.66-3.67,8.66-11.56C-288,218.64-292.57,214.1-297.93,214.1Z" 
  transform="translate(510.82 -178.48)"/><path class="cls-2" d="M-257.19,239.72v-1.14c3.35-.33,3.47-.57,3.43-4.94
  l0-16.68c-3.35,7.48-8.74,19.17-10.17,22.76H-265c-1.39-3.71-6-14.95-9.11-22.35-.69,14.3-.73,17.53-.73,18.31,0,2.29
  ,1.06,2.61,3.84,2.9v1.14h-9.69v-1.14c2.37-.24,3.35-.74,3.68-2.94.25-1.8.29-3.27,1.35-18.19.16-2.12-.25-2.82-3.84-3
  .14v-1.15h7.11l9,20.72,9.68-20.72h7.15v1.15c-3.51.41-4,.77-3.88,3.63l.17,15.7c.16,4.37.28,4.57,3.88,4.94v1.14Z"
   transform="translate(510.82 -178.48)"/><path class="cls-2" d="M-221.44,233.23c-.25,1.06-1.35,5.27-1.76,6.49h-19.8
   6v-1.14c3.8-.29,4.09-.65,4.09-4V218.44c0-3.64-.45-3.85-3.52-4.13v-1.15H-230c3.84,0,5.43,0,5.92-.08,0,1,.21,4.09.3
   7,6.25l-1.23.21a13.32,13.32,0,0,0-1.22-3.11c-.66-1.35-1.6-1.63-4.05-1.63h-3.88c-1.27,0-1.35.12-1.35,1.31v9h4.54c3.
   06,0,3.27-.62,3.76-3.39h1.26v8.41h-1.26c-.53-2.94-.86-3.35-3.8-3.35h-4.5v8.13c0,2.86.9,3.11,2.94,3.15h3.8c2.5,0,2.
   91-.37,3.8-1.43a17.25,17.25,0,0,0,2.21-3.76Z" transform="translate(510.82 -178.48)"/></svg>