<svg width="21" height="20" viewBox="0 0 21 20" fill="none" xmlns="http://www.w3.org/2000/svg">
<g clip-path="url(#clip0_121_1251)">
<path d="M9.5276 4.83316L10.4255 6.66476L11.3234 4.83316C12.2077 3.02944 13.5161 1.98096 15.1379 1.98096C16.3154 1.98096 17.3798 2.57559 18.1792 3.59446C18.9833 4.61943 19.4787 6.0332 19.4787 7.5162C19.4787 10.6904 17.2583 13.5392 14.794 15.6935C13.5863 16.7492 12.3738 17.5908 11.4612 18.1689C11.0323 18.4406 10.672 18.6527 10.4126 18.8001C10.1547 18.6608 9.79796 18.4606 9.37398 18.203C8.46382 17.6499 7.25465 16.8388 6.05035 15.8048C3.60104 13.7017 1.37231 10.8519 1.37231 7.5162C1.37231 6.03293 1.86777 4.61918 2.67193 3.59429C3.4713 2.57549 4.53572 1.98096 5.71307 1.98096C7.33478 1.98096 8.64331 3.02934 9.5276 4.83316Z" fill="#690C0C" stroke="#6F0606" stroke-width="2"/>
</g>
<defs>
<clipPath id="clip0_121_1251">
<rect width="35.1064" height="40.9523" fill="white" transform="translate(0.372314 0.980957)"/>
</clipPath>
</defs>
</svg>
