<svg width="33" height="34" viewBox="0 0 33 34" fill="none" xmlns="http://www.w3.org/2000/svg">
<path d="M18.5344 18.3911L19.045 18.9111L19.6964 18.5842C21.1142 17.8727 22.865 18.1085 24.0384 19.3033L31.5854 26.9885C32.1363 27.5495 32.14 28.4761 31.5839 29.0473C31.5836 29.0476 31.5833 29.048 31.583 29.0483L28.1889 32.5045L28.1865 32.5069C27.6458 33.0614 26.7698 33.0649 26.2194 32.5045L18.6724 24.8193C17.4962 23.6216 17.2593 21.816 17.9644 20.3483L18.2684 19.7155L17.7765 19.2146L10.9062 12.2185L10.6122 11.9192H10.1927H6.69582L1.31358 4.6115L4.22279 1.64904L11.3775 7.11332V10.6943V11.1032L11.664 11.395L18.5344 18.3911ZM26.4667 12.9929L26.9814 13.0801L27.3473 12.7076L31.8422 8.13041C32.3612 10.8096 31.6009 13.686 29.5681 15.7559C28.9963 16.3382 28.3533 16.8062 27.6667 17.1772L26.9219 16.4188C25.4465 14.9163 23.4757 14.0849 21.3811 14.0849C20.9629 14.0849 20.5402 14.1205 20.1237 14.1887L15.499 9.47933C15.5511 7.39619 16.3297 5.35377 17.8667 3.78858C19.9004 1.71764 22.7287 0.953459 25.3528 1.48841L20.8159 6.10842L20.4607 6.4701L20.5425 6.97038L21.2707 11.4266L21.386 12.1319L22.0906 12.2513L26.4667 12.9929ZM25.6107 1.22584C25.6108 1.22576 25.6108 1.22569 25.6109 1.22561L25.6107 1.22584ZM1.92192 27.4545L1.92215 27.4542L11.0308 18.1728L13.6055 20.7947C13.424 21.992 13.5336 23.1917 13.865 24.3173L6.32762 31.9926C5.10832 33.2342 3.14122 33.2342 1.92192 31.9926L1.20843 32.6932L1.92192 31.9926C0.692694 30.7409 0.692693 28.7062 1.92192 27.4545ZM1.5812 29.7202C1.5812 31.1217 2.70795 32.2953 4.12799 32.2953C5.55716 32.2953 6.67478 31.1189 6.67478 29.7202C6.67478 28.3123 5.55448 27.1451 4.12799 27.1451C2.70151 27.1451 1.5812 28.3123 1.5812 29.7202Z" fill="black" stroke="black" stroke-width="2"/>
</svg>
