<!DOCTYPE svg PUBLIC "-//W3C//DTD SVG 1.1//EN" "http://www.w3.org/Graphics/SVG/1.1/DTD/svg11.dtd">
<!-- Uploaded to: SVG Repo, www.svgrepo.com, Transformed by: SVG Repo Mixer Tools -->
<svg fill="#ffffff" width="800px" height="800px" viewBox="-4 0 32 32" version="1.1" xmlns="http://www.w3.org/2000/svg" stroke="#ffffff">
<g id="SVGRepo_bgCarrier" stroke-width="0"/>
<g id="SVGRepo_tracerCarrier" stroke-linecap="round" stroke-linejoin="round"/>
<g id="SVGRepo_iconCarrier"> <title>percent</title> <path d="M2.25 27.188l16.688-25.594h2.406l-16.75 25.594h-2.344zM5.75 2.063c2.969 0 5.406 2.438 5.406 5.406 0 3-2.438 5.438-5.406 5.438-3 0-5.438-2.438-5.438-5.438 0-2.969 2.438-5.406 5.438-5.406zM5.75 10.969c1.906 0 3.469-1.594 3.469-3.5s-1.563-3.438-3.469-3.438-3.469 1.531-3.469 3.438 1.563 3.5 3.469 3.5zM18.313 15.406c3 0 5.438 2.438 5.438 5.438 0 2.969-2.438 5.438-5.438 5.438-2.969 0-5.406-2.469-5.406-5.438 0-3 2.438-5.438 5.406-5.438zM18.313 24.313c1.906 0 3.469-1.563 3.469-3.469s-1.563-3.469-3.469-3.469-3.469 1.563-3.469 3.469 1.563 3.469 3.469 3.469z"/> </g>
</svg>