<!DOCTYPE svg PUBLIC "-//W3C//DTD SVG 1.1//EN" "http://www.w3.org/Graphics/SVG/1.1/DTD/svg11.dtd">
<!-- Uploaded to: SVG Repo, www.svgrepo.com, Transformed by: SVG Repo Mixer Tools -->
<svg width="800px" height="800px" viewBox="0 0 24 24" fill="none" xmlns="http://www.w3.org/2000/svg">
<g id="SVGRepo_bgCarrier" stroke-width="0"/>
<g id="SVGRepo_tracerCarrier" stroke-linecap="round" stroke-linejoin="round"/>
<g id="SVGRepo_iconCarrier"> <path d="M21.7071 3.70711C22.0976 3.31658 22.0976 2.68342 21.7071 2.29289C21.3166 1.90237 20.6834 1.90237 20.2929 2.29289L2.29289 20.2929C1.90237 20.6834 1.90237 21.3166 2.29289 21.7071C2.68342 22.0976 3.31658 22.0976 3.70711 21.7071L21.7071 3.70711Z" #ffffffill="#ffffff"/> <path #ffffffill-rule="evenodd" clip-rule="evenodd" d="M11 6.5C11 8.98528 8.98528 11 6.5 11C4.01472 11 2 8.98528 2 6.5C2 4.01472 4.01472 2 6.5 2C8.98528 2 11 4.01472 11 6.5ZM4.00693 6.5C4.00693 7.87689 5.12311 8.99307 6.5 8.99307C7.87689 8.99307 8.99307 7.87689 8.99307 6.5C8.99307 5.12311 7.87689 4.00693 6.5 4.00693C5.12311 4.00693 4.00693 5.12311 4.00693 6.5Z" #ffffffill="#ffffff"/> <path #ffffffill-rule="evenodd" clip-rule="evenodd" d="M22 17.5C22 19.9853 19.9853 22 17.5 22C15.0147 22 13 19.9853 13 17.5C13 15.0147 15.0147 13 17.5 13C19.9853 13 22 15.0147 22 17.5ZM15.0069 17.5C15.0069 18.8769 16.1231 19.9931 17.5 19.9931C18.8769 19.9931 19.9931 18.8769 19.9931 17.5C19.9931 16.1231 18.8769 15.0069 17.5 15.0069C16.1231 15.0069 15.0069 16.1231 15.0069 17.5Z" #ffffffill="#ffffff"/> </g>
</svg>