<svg width="34" height="37" viewBox="0 0 34 37" fill="none" xmlns="http://www.w3.org/2000/svg">
<path d="M9.71429 10.7089V7.81964C9.71429 7.34291 10.1241 6.95286 10.625 6.95286H13.6607C14.1616 6.95286 14.5714 7.34291 14.5714 7.81964V10.7089C14.5714 11.1857 14.1616 11.5757 13.6607 11.5757H10.625C10.1241 11.5757 9.71429 11.1857 9.71429 10.7089ZM20.3393 11.5757H23.375C23.8759 11.5757 24.2857 11.1857 24.2857 10.7089V7.81964C24.2857 7.34291 23.8759 6.95286 23.375 6.95286H20.3393C19.8384 6.95286 19.4286 7.34291 19.4286 7.81964V10.7089C19.4286 11.1857 19.8384 11.5757 20.3393 11.5757ZM10.625 18.51H13.6607C14.1616 18.51 14.5714 18.12 14.5714 17.6432V14.7539C14.5714 14.2772 14.1616 13.8872 13.6607 13.8872H10.625C10.1241 13.8872 9.71429 14.2772 9.71429 14.7539V17.6432C9.71429 18.12 10.1241 18.51 10.625 18.51ZM20.3393 18.51H23.375C23.8759 18.51 24.2857 18.12 24.2857 17.6432V14.7539C24.2857 14.2772 23.8759 13.8872 23.375 13.8872H20.3393C19.8384 13.8872 19.4286 14.2772 19.4286 14.7539V17.6432C19.4286 18.12 19.8384 18.51 20.3393 18.51ZM14.5714 24.5775V21.6882C14.5714 21.2115 14.1616 20.8215 13.6607 20.8215H10.625C10.1241 20.8215 9.71429 21.2115 9.71429 21.6882V24.5775C9.71429 25.0543 10.1241 25.4443 10.625 25.4443H13.6607C14.1616 25.4443 14.5714 25.0543 14.5714 24.5775ZM20.3393 25.4443H23.375C23.8759 25.4443 24.2857 25.0543 24.2857 24.5775V21.6882C24.2857 21.2115 23.8759 20.8215 23.375 20.8215H20.3393C19.8384 20.8215 19.4286 21.2115 19.4286 21.6882V24.5775C19.4286 25.0543 19.8384 25.4443 20.3393 25.4443ZM34 34.4011V37.0015H0V34.4011C0 33.9244 0.409821 33.5343 0.910714 33.5343H2.39062V1.75213C2.39062 0.79144 3.20268 0.0185547 4.21205 0.0185547H29.7879C30.7973 0.0185547 31.6094 0.79144 31.6094 1.75213V33.5343H33.0893C33.5902 33.5343 34 33.9244 34 34.4011ZM6.03348 33.4621H14.5714V28.6225C14.5714 28.1458 14.9812 27.7558 15.4821 27.7558H18.5179C19.0188 27.7558 19.4286 28.1458 19.4286 28.6225V33.4621H27.9665V3.55794L6.07143 3.4857L6.03348 33.4621Z" fill="black"/>
</svg>
