<svg width="30" height="33" viewBox="0 0 30 33" fill="none" xmlns="http://www.w3.org/2000/svg">
<path d="M23.6667 30.8888C26.06 30.8888 28.0001 28.9488 28.0001 26.5555C28.0001 24.1622 26.06 22.2222 23.6667 22.2222C21.2735 22.2222 19.3334 24.1622 19.3334 26.5555C19.3334 28.9488 21.2735 30.8888 23.6667 30.8888Z" stroke="white" stroke-width="3" stroke-linecap="round" stroke-linejoin="round"/>
<path d="M23.6667 10.6666C26.06 10.6666 28.0001 8.72653 28.0001 6.33331C28.0001 3.9401 26.06 2 23.6667 2C21.2735 2 19.3334 3.9401 19.3334 6.33331C19.3334 8.72653 21.2735 10.6666 23.6667 10.6666Z" stroke="white" stroke-width="3" stroke-linecap="round" stroke-linejoin="round"/>
<path d="M6.33331 20.7778C8.72653 20.7778 10.6666 18.8377 10.6666 16.4445C10.6666 14.0512 8.72653 12.1111 6.33331 12.1111C3.9401 12.1111 2 14.0512 2 16.4445C2 18.8377 3.9401 20.7778 6.33331 20.7778Z" stroke="white" stroke-width="3" stroke-linecap="round" stroke-linejoin="round"/>
<path d="M20.0554 8.5L9.94434 14.2778" stroke="white" stroke-width="3"/>
<path d="M9.94434 18.611L20.0554 24.3888" stroke="white" stroke-width="3"/>
</svg>
