<svg width="33" height="33" viewBox="0 0 33 33" fill="none" xmlns="http://www.w3.org/2000/svg">
<path d="M2 16.5C2 24.5081 8.49187 31 16.5 31C24.5081 31 31 24.5081 31 16.5C31 8.49187 24.5081 2 16.5 2C8.49187 2 2 8.49187 2 16.5Z" stroke="#FFFEFB" stroke-width="2.367" stroke-linecap="round" stroke-linejoin="round"/>
<path d="M17.95 2.07153C17.95 2.07153 22.3 7.79993 22.3 16.4999C22.3 25.1999 17.95 30.9284 17.95 30.9284" stroke="#FFFEFB" stroke-width="2.367" stroke-linecap="round" stroke-linejoin="round"/>
<path d="M15.05 30.9284C15.05 30.9284 10.7 25.1999 10.7 16.4999C10.7 7.79993 15.05 2.07153 15.05 2.07153" stroke="#FFFEFB" stroke-width="2.367" stroke-linecap="round" stroke-linejoin="round"/>
<path d="M2.91284 21.575H30.0869" stroke="#FFFEFB" stroke-width="2.367" stroke-linecap="round" stroke-linejoin="round"/>
<path d="M2.91284 11.4249H30.0869" stroke="#FFFEFB" stroke-width="2.367" stroke-linecap="round" stroke-linejoin="round"/>
</svg>
