<svg width="40" height="33" viewBox="0 0 40 33" fill="none" xmlns="http://www.w3.org/2000/svg">
<path d="M5.60001 19.1V18.2C5.60001 9.253 12.0471 2 20 2C27.953 2 34.4 9.253 34.4 18.2V19.1" stroke="white" stroke-width="4" stroke-linecap="round" stroke-linejoin="round"/>
<path d="M2 26.1893V22.8109C2 21.159 3.12426 19.719 4.72688 19.3184L5.6 19.1L7.85807 18.5355C8.53971 18.3653 9.2 18.8808 9.2 19.5833V29.4169C9.2 30.1194 8.53971 30.635 7.85807 30.4647L4.72688 29.6819C3.12426 29.2812 2 27.8412 2 26.1893Z" stroke="white" stroke-width="4" stroke-linecap="round" stroke-linejoin="round"/>
<path d="M38 26.1893V22.8109C38 21.159 36.8757 19.719 35.2732 19.3184L34.4 19.1L32.1419 18.5355C31.4602 18.3653 30.8 18.8808 30.8 19.5833V29.4169C30.8 30.1194 31.4602 30.635 32.1419 30.4647L35.2732 29.6819C36.8757 29.2812 38 27.8412 38 26.1893Z" stroke="white" stroke-width="4" stroke-linecap="round" stroke-linejoin="round"/>
</svg>
